Coordinates
version=1
nRows=30
nColumns=21
inDegrees=yes

Units are S.I. units (second, meters, Newtons, ...)
If the header above contains a line with 'inDegrees', this indicates whether rotational values are in degrees (yes) or radians (no).

endheader
time	sternoclavicular_r2	sternoclavicular_r3	unrotscap_r3	unrotscap_r2	acromioclavicular_r2	acromioclavicular_r3	acromioclavicular_r1	unrothum_r1	unrothum_r3	unrothum_r2	elv_angle	shoulder_elev	shoulder1_r2	shoulder_rot	elbow_flexion	pro_sup	deviation	flexion	wrist_hand_r1	wrist_hand_r3
      2.01005025	    -13.48648226	      5.71223736	     -5.71223736	     13.48648226	     -2.73073832	     22.06886656	      9.91980364	     -9.91980364	    -22.06886656	      2.73073832	    129.49159823	     55.72914064	   -129.49159823	     19.75690748	      0.46989485	      0.00000000	      0.00000000	     -0.00000000	     -0.00000000	      0.00000000
      2.03015075	    -13.56079078	      5.74371094	     -5.74371094	     13.56079078	     -2.74578429	     22.19046275	      9.97446029	     -9.97446029	    -22.19046275	      2.74578429	    129.58361950	     56.03619995	   -129.58361950	     19.74437605	      0.46848716	      0.00000000	      0.00000000	     -0.00000000	     -0.00000000	      0.00000000
      2.05025126	    -13.63800592	      5.77641563	     -5.77641563	     13.63800592	     -2.76141878	     22.31681524	     10.03125486	    -10.03125486	    -22.31681524	      2.76141878	    129.67393520	     56.35527005	   -129.67393520	     19.73430698	      0.44376162	      0.00000000	      0.00000000	     -0.00000000	     -0.00000000	      0.00000000
      2.07035176	    -13.71657746	      5.80969483	     -5.80969483	     13.71657746	     -2.77732792	     22.44538730	     10.08904712	    -10.08904712	    -22.44538730	      2.77732792	    129.75209469	     56.67994512	   -129.75209469	     19.73053670	      0.41106222	      0.00000000	      0.00000000	     -0.00000000	     -0.00000000	      0.00000000
      2.09045226	    -13.79587262	      5.84328051	     -5.84328051	     13.79587262	     -2.79338358	     22.57514347	     10.14737162	    -10.14737162	    -22.57514347	      2.79338358	    129.82419156	     57.00761034	   -129.82419156	     19.72233267	      0.37187931	      0.00000000	      0.00000000	     -0.00000000	     -0.00000000	      0.00000000
      2.11055276	    -13.87682977	      5.87757014	     -5.87757014	     13.87682977	     -2.80977575	     22.70761927	     10.20691858	    -10.20691858	    -22.70761927	      2.80977575	    129.88078495	     57.34214326	   -129.88078495	     19.71348585	      0.32002280	      0.00000000	      0.00000000	     -0.00000000	     -0.00000000	      0.00000000
      2.13065327	    -13.95837358	      5.91210825	     -5.91210825	     13.95837358	     -2.82628671	     22.84105506	     10.26689705	    -10.26689705	    -22.84105506	      2.82628671	    129.91990965	     57.67910037	   -129.91990965	     19.70469591	      0.26043329	      0.00000000	      0.00000000	     -0.00000000	     -0.00000000	      0.00000000
      2.15075377	    -14.03966528	      5.94653958	     -5.94653958	     14.03966528	     -2.84274663	     22.97407831	     10.32669009	    -10.32669009	    -22.97407831	      2.84274663	    129.94437433	     58.01501575	   -129.94437433	     19.69848705	      0.20637564	      0.00000000	      0.00000000	     -0.00000000	     -0.00000000	      0.00000000
      2.17085427	    -14.11975797	      5.98046306	     -5.98046306	     14.11975797	     -2.85896377	     23.10513954	     10.38560121	    -10.38560121	    -23.10513954	      2.85896377	    129.95921901	     58.34597653	   -129.95921901	     19.69268482	      0.16170545	      0.00000000	      0.00000000	     -0.00000000	     -0.00000000	      0.00000000
      2.19095477	    -14.19921346	      6.01411666	     -6.01411666	     14.19921346	     -2.87505189	     23.23515807	     10.44404364	    -10.44404364	    -23.23515807	      2.87505189	    129.96866678	     58.67430428	   -129.96866678	     19.66974393	      0.12938181	      0.00000000	      0.00000000	     -0.00000000	     -0.00000000	      0.00000000
      2.21105528	    -14.27729253	      6.04718727	     -6.04718727	     14.27729253	     -2.89086132	     23.36292428	     10.50147367	    -10.50147367	    -23.36292428	      2.89086132	    129.97472813	     58.99694436	   -129.97472813	     19.67119971	      0.10731874	      0.00000000	      0.00000000	     -0.00000000	     -0.00000000	      0.00000000
      2.23115578	    -14.35478398	      6.08000898	     -6.08000898	     14.35478398	     -2.90655176	     23.48972890	     10.55847148	    -10.55847148	    -23.48972890	      2.90655176	    129.97896463	     59.31715621	   -129.97896463	     19.67596269	      0.09079708	      0.00000000	      0.00000000	     -0.00000000	     -0.00000000	      0.00000000
      2.25125628	    -14.43346798	      6.11333581	     -6.11333581	     14.43346798	     -2.92248367	     23.61848498	     10.61634645	    -10.61634645	    -23.61848498	      2.92248367	    129.98202953	     59.64229597	   -129.98202953	     19.64341350	      0.07801916	      0.00000000	      0.00000000	     -0.00000000	     -0.00000000	      0.00000000
      2.27135678	    -14.50992049	      6.14571749	     -6.14571749	     14.50992049	     -2.93796375	     23.74358954	     10.67258009	    -10.67258009	    -23.74358954	      2.93796375	    129.98437837	     59.95821475	   -129.98437837	     19.64847158	      0.06893751	      0.00000000	      0.00000000	     -0.00000000	     -0.00000000	      0.00000000
      2.29145729	    -14.58641287	      6.17811605	     -6.17811605	     14.58641287	     -2.95345190	     23.86875933	     10.72884305	    -10.72884305	    -23.86875933	      2.95345190	    129.98620435	     60.27429826	   -129.98620435	     19.64952836	      0.06156636	      0.00000000	      0.00000000	     -0.00000000	     -0.00000000	      0.00000000
      2.31155779	    -14.66271945	      6.21043592	     -6.21043592	     14.66271945	     -2.96890243	     23.99362507	     10.78496934	    -10.78496934	    -23.99362507	      2.96890243	    129.98765769	     60.58961398	   -129.98765769	     19.65097507	      0.05556772	      0.00000000	      0.00000000	     -0.00000000	     -0.00000000	      0.00000000
      2.33165829	    -14.73883948	      6.24267677	     -6.24267677	     14.73883948	     -2.98431518	     24.11818557	     10.84095842	    -10.84095842	    -24.11818557	      2.98431518	    129.98883927	     60.90415887	   -129.98883927	     19.65245621	      0.05059072	      0.00000000	      0.00000000	     -0.00000000	     -0.00000000	      0.00000000
      2.35175879	    -14.81475311	      6.27483020	     -6.27483020	     14.81475311	     -2.99968615	     24.24240831	     10.89679569	    -10.89679569	    -24.24240831	      2.99968615	    129.98981736	     61.21785087	   -129.98981736	     19.65400502	      0.04640541	      0.00000000	      0.00000000	     -0.00000000	     -0.00000000	      0.00000000
      2.37185930	    -14.89043446	      6.30688525	     -6.30688525	     14.89043446	     -3.01501008	     24.36625095	     10.95246211	    -10.95246211	    -24.36625095	      3.01501008	    129.99063955	     61.53058302	   -129.99063955	     19.65562713	      0.04285074	      0.00000000	      0.00000000	     -0.00000000	     -0.00000000	      0.00000000
      2.39195980	    -14.96585371	      6.33882928	     -6.33882928	     14.96585371	     -3.03028095	     24.48966469	     11.00793574	    -11.00793574	    -24.48966469	      3.03028095	    129.99134015	     61.84223209	   -129.99134015	     19.65723512	      0.03981200	      0.00000000	      0.00000000	     -0.00000000	     -0.00000000	      0.00000000
      2.41206030	    -15.04097855	      6.37064862	     -6.37064862	     15.04097855	     -3.04549220	     24.61259668	     11.06319282	    -11.06319282	    -24.61259668	      3.04549220	    129.99194337	     62.15266462	   -129.99194337	     19.65916293	      0.03717556	      0.00000000	      0.00000000	     -0.00000000	     -0.00000000	      0.00000000
      2.43216080	    -15.11577791	      6.40233010	     -6.40233010	     15.11577791	     -3.06063755	     24.73499607	     11.11821050	    -11.11821050	    -24.73499607	      3.06063755	    129.99246834	     62.46175220	   -129.99246834	     19.66112603	      0.03488509	      0.00000000	      0.00000000	     -0.00000000	     -0.00000000	      0.00000000
      2.45226131	    -15.19021856	      6.43385964	     -6.43385964	     15.19021856	     -3.07571027	     24.85680846	     11.17296433	    -11.17296433	    -24.85680846	      3.07571027	    129.99292886	     62.76935749	   -129.99292886	     19.66324813	      0.03287481	      0.00000000	      0.00000000	     -0.00000000	     -0.00000000	      0.00000000
      2.47236181	    -15.26426675	      6.46522296	     -6.46522296	     15.26426675	     -3.09070352	     24.97797866	     11.22742950	    -11.22742950	    -24.97797866	      3.09070352	    129.99333577	     63.07534107	   -129.99333577	     19.66553774	      0.03109758	      0.00000000	      0.00000000	     -0.00000000	     -0.00000000	      0.00000000
      2.49246231	    -15.33788802	      6.49640546	     -6.49640546	     15.33788802	     -3.10561033	     25.09845025	     11.28158065	    -11.28158065	    -25.09845025	      3.10561033	    129.99369763	     63.37956050	   -129.99369763	     19.66799344	      0.02951599	      0.00000000	      0.00000000	     -0.00000000	     -0.00000000	      0.00000000
      2.51256281	    -15.41104735	      6.52739230	     -6.52739230	     15.41104735	     -3.12042360	     25.21816593	     11.33539203	    -11.33539203	    -25.21816593	      3.12042360	    129.99402128	     63.68187111	   -129.99402128	     19.67060635	      0.02810015	      0.00000000	      0.00000000	     -0.00000000	     -0.00000000	      0.00000000
      2.53266332	    -15.48489453	      6.55867048	     -6.55867048	     15.48489453	     -3.13537616	     25.33900720	     11.38970935	    -11.38970935	    -25.33900720	      3.13537616	    129.99431363	     63.98702406	   -129.99431363	     19.65231225	      0.02678735	      0.00000000	      0.00000000	     -0.00000000	     -0.00000000	      0.00000000
      2.55276382	    -15.55723815	      6.58931182	     -6.58931182	     15.55723815	     -3.15002427	     25.45738808	     11.44292074	    -11.44292074	    -25.45738808	      3.15002427	    129.99457689	     64.28596397	   -129.99457689	     19.64899062	      0.02563285	      0.00000000	      0.00000000	     -0.00000000	     -0.00000000	      0.00000000
      2.57286432	    -15.62896540	      6.61969210	     -6.61969210	     15.62896540	     -3.16454758	     25.57476036	     11.49567877	    -11.49567877	    -25.57476036	      3.16454758	    129.99481553	     64.58235690	   -129.99481553	     19.64639267	      0.02458406	      0.00000000	      0.00000000	     -0.00000000	     -0.00000000	      0.00000000
      2.59296482	    -15.70006119	      6.64980492	     -6.64980492	     15.70006119	     -3.17894303	     25.69109933	     11.54797234	    -11.54797234	    -25.69109933	      3.17894303	    129.99503270	     64.87614049	   -129.99503270	     19.64487355	      0.02362854	      0.00000000	      0.00000000	     -0.00000000	     -0.00000000	      0.00000000
